<?xml version="1.0" encoding="UTF-8"?>
<svg version="1.1" xmlns="http://www.w3.org/2000/svg" width="88" height="90">
<path d="M0 0 C29.04 0 58.08 0 88 0 C88 29.7 88 59.4 88 90 C58.96 90 29.92 90 0 90 C0 60.3 0 30.6 0 0 Z " fill="#3C94E7" transform="translate(0,0)"/>
<path d="M0 0 C29.04 0 58.08 0 88 0 C88 29.7 88 59.4 88 90 C58.96 90 29.92 90 0 90 C0 60.3 0 30.6 0 0 Z M6 9 C3.67327954 12.4900807 3.7382125 13.90272616 3.70947266 18.02856445 C3.69671295 19.27027908 3.68395325 20.51199371 3.67080688 21.79133606 C3.66774889 23.14864954 3.66552131 24.50596511 3.6640625 25.86328125 C3.65763401 27.25709673 3.65090561 28.65091086 3.64389038 30.04472351 C3.63191399 32.96759161 3.62820978 35.89034151 3.62939453 38.81323242 C3.62959745 42.54917223 3.60232627 46.284349 3.56785011 50.02010822 C3.54555083 52.90013573 3.54155794 55.7799807 3.54261398 58.66008568 C3.54026138 60.03674124 3.53145695 61.41340208 3.51594925 62.78997231 C3.1708446 72.77530553 3.1708446 72.77530553 8 81 C13.42440388 85.06830291 19.53068499 84.28263998 26 84 C25.38125 83.319375 24.7625 82.63875 24.125 81.9375 C19.5210758 75.57325183 19.70255007 68.9005712 19.734375 61.32421875 C19.73246155 60.31784866 19.7305481 59.31147858 19.72857666 58.27461243 C19.72722136 56.15922799 19.73087181 54.04383505 19.73925781 51.9284668 C19.75002274 48.68063931 19.73931151 45.43335792 19.7265625 42.18554688 C19.72788311 40.12760294 19.73044347 38.06965935 19.734375 36.01171875 C19.73032654 35.03780685 19.72627808 34.06389496 19.72210693 33.06047058 C19.72841125 32.16226089 19.73471558 31.26405121 19.74121094 30.33862305 C19.74280212 29.54699265 19.74439331 28.75536224 19.74603271 27.93974304 C20 26 20 26 22 24 C23.85949707 23.74603271 23.85949707 23.74603271 26.14257812 23.74121094 C26.99686401 23.73490662 27.8511499 23.72860229 28.73132324 23.72210693 C29.65529907 23.7261554 30.5792749 23.73020386 31.53125 23.734375 C32.95153503 23.73150482 32.95153503 23.73150482 34.4005127 23.72857666 C36.40454372 23.72721427 38.40858354 23.73091444 40.41259766 23.73925781 C43.48750553 23.74995653 46.56182914 23.73936428 49.63671875 23.7265625 C51.58073046 23.72788409 53.52474181 23.73044646 55.46875 23.734375 C56.39272583 23.73032654 57.31670166 23.72627808 58.26867676 23.72210693 C59.55010559 23.73156342 59.55010559 23.73156342 60.85742188 23.74121094 C61.61083862 23.74280212 62.36425537 23.74439331 63.14050293 23.74603271 C65 24 65 24 67 26 C67.21197014 28.70115907 67.30397679 31.29724538 67.30078125 34 C67.30506638 34.79148437 67.3093515 35.58296875 67.31376648 36.3984375 C67.31951298 38.07290693 67.32000768 39.74740132 67.31567383 41.421875 C67.31251229 43.99001412 67.3359731 46.5570033 67.36132812 49.125 C67.36360086 50.74999854 67.36430473 52.37500019 67.36328125 54 C67.372491 54.77085938 67.38170074 55.54171875 67.39118958 56.3359375 C67.37231445 58.5 67.37231445 58.5 67 62 C63.42119307 64.38587129 61.78803086 64.25173814 57.5390625 64.2734375 C56.26289062 64.2940625 54.98671875 64.3146875 53.671875 64.3359375 C51.64868832 64.35850457 49.6258457 64.37499755 47.60253906 64.38085938 C45.64372166 64.39041925 43.68508084 64.42539987 41.7265625 64.4609375 C39.97206787 64.47326416 39.97206787 64.47326416 38.18212891 64.48583984 C34.38300843 65.0996919 32.72667957 66.3379602 30 69 C28.44975536 72.10048928 28.71007985 74.57894218 29 78 C30.79562405 80.75329021 32.05254922 82.52627461 35 84 C37.77397982 84.12347091 40.52183194 84.18842085 43.296875 84.203125 C44.53645966 84.21167511 44.53645966 84.21167511 45.80108643 84.22039795 C47.55292479 84.22985351 49.30478098 84.23638413 51.05664062 84.24023438 C53.72558082 84.24991146 56.39374156 84.28091706 59.0625 84.3125 C60.76562043 84.31903304 62.46874637 84.32428233 64.171875 84.328125 C65.36281769 84.3466452 65.36281769 84.3466452 66.57781982 84.36553955 C71.46089488 84.34610066 74.75836193 83.67598635 79 81 C83.16670916 76.49544955 84.12166072 73.26710104 84.16113281 67.23095703 C84.17074036 66.04607697 84.1803479 64.8611969 84.19024658 63.64041138 C84.19449646 62.35915375 84.19874634 61.07789612 84.203125 59.7578125 C84.20882507 58.44215302 84.21452515 57.12649353 84.22039795 55.77096558 C84.23089719 52.98516453 84.23674692 50.19939226 84.24023438 47.41357422 C84.24571756 43.85031742 84.26974582 40.28744303 84.29820633 36.72430611 C84.32135043 33.31881558 84.32328337 29.9133776 84.328125 26.5078125 C84.3466452 24.59199875 84.3466452 24.59199875 84.36553955 22.63748169 C84.36253845 21.4462973 84.35953735 20.25511292 84.35644531 19.02783203 C84.36009094 17.98209015 84.36373657 16.93634827 84.36749268 15.85891724 C83.76117045 11.14202031 81.82968609 8.67226845 78.18969727 5.72290039 C72.56480592 2.80554592 66.13908862 3.41005939 59.96484375 3.43359375 C58.59916258 3.42835109 57.23348503 3.42207227 55.86781311 3.41481018 C53.01578642 3.40444073 50.16425979 3.40891849 47.31225586 3.42358398 C43.66808487 3.44079509 40.02548729 3.41723304 36.38149166 3.38209438 C33.56488214 3.36007739 30.74864699 3.36157148 27.93197823 3.3698597 C25.93898016 3.37107147 23.94600505 3.3511915 21.95310974 3.33091736 C14.87789752 3.40370634 10.71023055 3.47117512 6 9 Z " fill="#010305" transform="translate(0,0)"/>
<path d="M0 0 C3.99513247 0.32987332 7.37985696 2.73532109 10.75 4.75 C11.35199219 5.08515625 11.95398438 5.4203125 12.57421875 5.765625 C14.296875 6.796875 14.296875 6.796875 17 9 C17.390625 11.765625 17.390625 11.765625 17 14 C14.75820623 15.36965208 12.50827662 16.72052808 10.25 18.0625 C9.29867187 18.64741211 9.29867187 18.64741211 8.328125 19.24414062 C3.51087136 22.07929511 3.51087136 22.07929511 0.84667969 21.66577148 C-1 21 -1 21 -2 20 C-2.12667764 17.00981839 -2.18520838 14.05305892 -2.1875 11.0625 C-2.19974609 10.22525391 -2.21199219 9.38800781 -2.22460938 8.52539062 C-2.22654297 7.72423828 -2.22847656 6.92308594 -2.23046875 6.09765625 C-2.23457764 5.36039307 -2.23868652 4.62312988 -2.24291992 3.86352539 C-2 2 -2 2 0 0 Z " fill="#F0F3F6" transform="translate(38,31)"/>
</svg>
